<svg xmlns="http://www.w3.org/2000/svg" xmlns:xlink="http://www.w3.org/1999/xlink" version="1.1" id="Calque_1" x="0px" y="0px" width="100px" height="100px" viewBox="0 0 100 100" enable-background="new 0 0 100 100" xml:space="preserve">
<g>
	<path d="M88.566,12.101c-2.051-5.613-5.838-9.389-8.459-8.432c-0.209,0.076-0.404,0.185-0.588,0.315V3.982L53.006,23.395h0.002   c-0.594,0.423-0.857,1.202-0.598,1.918c0.262,0.716,0.965,1.14,1.689,1.083l0.012,0.034l32.609-2.281   c0.281-0.006,0.557-0.051,0.814-0.146C90.156,23.045,90.619,17.717,88.566,12.101z M86.627,22.374   c-1.855,0.679-4.738-2.55-6.441-7.21c-1.701-4.658-1.578-8.986,0.277-9.664c1.855-0.679,4.74,2.549,6.443,7.208   C88.607,17.368,88.484,21.695,86.627,22.374z"/>
	<path d="M66.33,29.133c0-0.811-0.809-1.467-1.809-1.467c-0.9,0-1.645,0.538-1.779,1.239l-1.656,7.062l-9.83-4.062L33.247,33.1   L10.522,55.778l0.001,0.003c-0.25,0.252-0.401,0.572-0.401,0.919c0,0.81,0.809,1.467,1.807,1.467c0.493,0,0.941-0.162,1.267-0.424   l0.003,0.002l20.049-15.481l2.634,13.37h-0.001l-8.11,39.554c0,0-0.433,1.351,1.221,1.638c1.457,0.255,1.968-0.991,1.968-0.991   l12.891-29.678h0.004h0.002l12.892,29.678c0,0,0.51,1.246,1.969,0.991c1.652-0.287,1.219-1.638,1.219-1.638l-8.107-39.543   l2.646-15.16l8.805,2.868c0,0,1.463,0.658,2.314-0.989c0.816-1.583,0.742-12.324,0.734-13.189   C66.326,29.159,66.33,29.146,66.33,29.133z"/>
	<path d="M42.303,30.554c3.731,0.013,6.77-3.003,6.781-6.735c0.014-3.732-3.002-6.769-6.734-6.782   c-3.732-0.012-6.768,3.004-6.78,6.736C35.556,27.504,38.572,30.54,42.303,30.554z M45.362,25.689   c0.829-0.537,1.756-0.579,2.071-0.091c0.314,0.488-0.102,1.316-0.928,1.854c-0.828,0.537-1.755,0.579-2.07,0.092   C44.118,27.058,44.534,26.227,45.362,25.689z"/>
</g>
</svg>