<svg xmlns="http://www.w3.org/2000/svg" xmlns:xlink="http://www.w3.org/1999/xlink" version="1.1" id="Layer_1" width="1077.2727272727" height="1100" viewBox="230 230 1612 1792" enable-background="new 0 0 612 792" xml:space="preserve">
<g>
	<path fill="#000000" d="M335.799,292.001v92.398c0,3-2.6,5.4-5.8,5.4c-3.199,0-5.6-2.4-5.6-5.4C315,372.8,298.399,358,273.601,358   h-10.2l22.399,37.799l-13.6,9.8c-3.4,1.799-7-0.4-9-2.801L235.4,358h-14.999c0,0-14-7.6-14-19.6c0-12,14-18.8,14-18.8h53.199   c24.799,0,41.399-15.4,50.799-27.6c0-3,2.4-5.4,5.6-5.4C333.199,286.601,335.799,289.001,335.799,292.001z M245.2,332.4   c0-1.4-1.199-2.6-2.6-2.6h-16c-1.399,0-2.8,1.2-2.8,2.6s1.4,2.8,2.8,2.8h16C244.001,335.2,245.2,333.8,245.2,332.4z M245.2,344   c0-1.4-1.199-2.6-2.6-2.6h-16c-1.399,0-2.8,1.2-2.8,2.6s1.4,2.8,2.8,2.8h16C244.001,346.8,245.2,345.4,245.2,344z M322.6,368.4   v-60.199c-12.4,13.2-27.399,20.2-46.399,20.2V349C295.2,349,310,355.8,322.6,368.4z"/>
</g>
</svg>
