<svg xmlns="http://www.w3.org/2000/svg" xmlns:xlink="http://www.w3.org/1999/xlink" xmlns:a="http://ns.adobe.com/AdobeSVGViewerExtensions/3.0/" version="1.1" x="0px" y="0px" width="100px" height="100px" viewBox="-0.42 -13.602 100 100" overflow="visible" enable-background="new -0.42 -13.602 100 100" xml:space="preserve">
<defs>
</defs>
<path d="M0,41.773l17.734,4.713l-4.183,17.877c-0.865,3.693,1.429,7.388,5.122,8.25c0.528,0.125,1.053,0.184,1.572,0.184  c3.117,0,5.94-2.138,6.681-5.303l4.089-17.479l27.941,7.423V4.569L0,20.235V41.773z"/>
<path d="M76.103,12.115c-1.788-1.789-4.688-1.787-6.477-0.002c-1.789,1.789-1.789,4.688-0.002,6.477  c3.315,3.316,5.142,7.725,5.142,12.413s-1.826,9.099-5.142,12.412c-1.787,1.788-1.787,4.69,0.002,6.479  c0.895,0.89,2.065,1.337,3.237,1.337s2.346-0.447,3.239-1.341c5.044-5.049,7.821-11.755,7.821-18.887  C83.924,23.871,81.146,17.164,76.103,12.115z"/>
<path d="M86.875,1.341c-1.789-1.789-4.687-1.789-6.475,0c-1.789,1.786-1.789,4.686,0,6.475c6.192,6.195,9.603,14.43,9.603,23.187  c0,8.759-3.41,16.99-9.603,23.188c-1.789,1.788-1.789,4.686,0,6.475c0.894,0.894,2.065,1.341,3.237,1.341  c1.171,0,2.345-0.447,3.237-1.341c7.923-7.929,12.285-18.459,12.285-29.663C99.16,19.799,94.798,9.267,86.875,1.341z"/>
</svg>